<?xml version="1.0" standalone="no"?>
<!DOCTYPE svg PUBLIC "-//W3C//DTD SVG 20010904//EN"
 "http://www.w3.org/TR/2001/REC-SVG-20010904/DTD/svg10.dtd">
<svg version="1.0" xmlns="http://www.w3.org/2000/svg"
 width="305.000000pt" height="305.000000pt" viewBox="0 0 305.000000 305.000000"
 preserveAspectRatio="xMidYMid meet">
<metadata>
Created by potrace 1.14, written by Peter Selinger 2001-2017
</metadata>
<g transform="translate(0.000000,305.000000) scale(0.100000,-0.100000)"
fill="#000000" stroke="none">
<path d="M1517 2624 c-1 -1 -38 -4 -82 -7 -375 -26 -758 -216 -970 -482 -22
-27 -43 -51 -47 -53 -5 -2 -8 -9 -8 -16 0 -7 -8 -21 -18 -32 -10 -10 -19 -23
-21 -29 -16 -52 -45 -85 -96 -111 -31 -15 -67 -41 -79 -58 -26 -35 -48 -91
-39 -100 4 -3 0 -6 -8 -6 -11 0 -11 -2 1 -10 8 -5 12 -10 8 -10 -4 0 -1 -17 7
-39 13 -39 61 -95 74 -87 3 3 7 -4 7 -15 0 -13 -5 -18 -15 -14 -10 4 -11 2 -4
-7 6 -7 9 -21 8 -30 -2 -10 1 -18 6 -18 11 0 7 -23 -6 -32 -7 -5 -6 -8 0 -8 6
0 12 -17 13 -37 2 -21 7 -56 12 -78 5 -21 8 -40 7 -40 -1 -1 -14 -9 -30 -18
-33 -21 -37 -72 -7 -104 13 -15 16 -23 7 -26 -7 -2 10 -3 36 -1 29 2 46 0 42
-6 -3 -6 -2 -10 3 -10 6 0 13 -7 16 -16 3 -8 2 -12 -4 -9 -5 3 -18 1 -27 -5
-16 -10 -16 -10 3 -5 11 3 29 -2 40 -11 10 -8 12 -13 4 -9 -10 4 -9 2 2 -8 10
-8 18 -20 18 -27 0 -7 8 -19 18 -27 9 -8 12 -12 5 -9 -6 4 -15 1 -19 -5 -4 -7
-3 -9 4 -5 12 7 16 3 96 -96 33 -40 76 -86 97 -103 37 -29 46 -53 18 -47 -11
3 -12 1 -1 -10 11 -11 14 -11 21 1 6 10 20 4 60 -25 39 -28 49 -39 39 -46 -9
-6 -6 -7 9 -3 17 5 32 -4 65 -37 23 -24 37 -35 29 -26 -14 19 -5 23 18 9 8 -5
10 -14 6 -22 -6 -11 -5 -11 4 -3 14 13 80 -14 81 -33 0 -6 4 -15 10 -18 5 -3
7 0 4 9 -4 11 0 13 15 9 12 -3 21 -10 21 -15 0 -5 5 -6 11 -2 8 4 9 -1 4 -17
-7 -24 -7 -24 10 -4 11 14 18 16 21 8 3 -7 13 -13 22 -13 10 0 34 -5 55 -11
31 -8 36 -13 27 -24 -8 -10 -8 -15 1 -21 7 -4 10 -3 7 2 -3 5 0 15 8 22 11 10
16 9 26 -1 7 -8 20 -12 29 -10 28 8 97 -16 102 -35 4 -16 5 -16 6 1 1 10 9 17
22 17 11 0 18 -4 15 -8 -3 -5 1 -9 9 -9 8 0 12 4 9 9 -3 4 0 8 5 8 6 0 11 -4
11 -8 0 -5 21 -9 48 -9 84 0 103 -3 97 -13 -3 -5 -1 -10 4 -10 6 0 11 6 11 13
0 7 9 13 20 13 23 0 27 -14 5 -22 -16 -6 -11 -24 6 -24 6 0 8 3 5 8 -2 4 2 16
10 27 8 10 14 15 14 9 0 -5 11 -9 25 -9 14 0 25 3 25 8 0 4 5 7 11 7 5 0 7 -6
3 -13 -6 -9 -5 -9 7 0 12 10 18 10 29 0 10 -9 11 -9 6 1 -6 9 -1 11 18 8 14
-3 28 0 31 5 10 15 23 11 28 -8 4 -17 5 -17 6 0 1 11 10 18 29 19 41 2 46 3
60 12 7 4 20 2 29 -6 12 -9 15 -9 9 0 -4 6 -4 12 1 13 4 0 16 2 26 4 14 3 17
-1 12 -13 -3 -9 5 -4 19 11 14 15 29 27 33 28 29 3 50 7 65 13 18 8 19 -7 3
-34 -8 -13 -6 -13 8 -2 9 8 16 17 15 20 -2 23 6 32 40 43 20 7 43 12 51 10 7
-1 10 2 7 7 -3 5 6 14 20 21 14 6 23 7 20 3 -3 -5 1 -9 8 -9 9 0 12 7 8 16 -3
9 -2 13 3 9 4 -4 19 2 33 12 13 11 31 20 38 20 8 0 14 5 14 10 0 12 26 14 33
3 2 -5 2 -2 0 6 -5 20 29 42 44 29 7 -6 10 -15 6 -21 -3 -6 -1 -7 6 -3 9 6 9
11 0 23 -10 12 -7 19 17 38 16 14 35 24 42 25 7 0 10 4 7 10 -4 6 1 7 11 3 10
-4 15 -2 11 3 -6 10 51 70 62 68 3 -1 15 7 26 19 11 11 13 16 5 12 -8 -5 6 14
30 43 25 29 48 52 53 52 4 0 7 5 7 11 0 6 19 43 43 82 24 40 56 100 72 135 20
41 34 61 43 57 8 -3 34 -5 58 -5 33 0 43 -3 39 -12 -4 -7 1 -4 9 6 9 11 16 16
16 12 0 -5 9 3 20 17 11 14 20 38 20 54 0 29 -31 73 -52 73 -7 0 -6 5 2 15 7
9 8 15 2 15 -6 0 -7 13 -2 35 4 19 5 35 1 35 -6 0 -31 65 -33 88 -1 6 -4 10
-6 7 -9 -9 -32 17 -25 28 3 6 1 7 -5 3 -14 -9 -30 22 -28 54 1 14 -1 32 -5 41
-4 8 -10 26 -12 40 -2 13 -6 31 -10 39 -22 58 -36 114 -30 123 3 5 2 7 -4 4
-13 -8 -36 41 -27 55 4 6 2 8 -4 4 -6 -3 -14 4 -18 16 -4 13 -11 26 -16 29 -5
3 -10 15 -11 27 0 11 -5 19 -9 16 -4 -3 -15 8 -25 23 -30 46 -35 52 -123 142
-75 77 -254 211 -281 211 -6 0 -7 5 -3 12 4 6 3 8 -3 5 -6 -4 -36 7 -67 23
-123 62 -336 120 -501 136 -58 5 -195 11 -198 8z"/>
<path d="M2837 1225 c-4 -8 -3 -16 1 -19 4 -3 9 4 9 15 2 23 -3 25 -10 4z"/>
<path d="M2872 1221 c-11 -7 -10 -9 3 -14 9 -4 14 -3 10 2 -3 5 1 12 7 14 7 3
9 6 3 6 -5 0 -16 -3 -23 -8z"/>
<path d="M2811 1164 c0 -11 3 -14 6 -6 3 7 2 16 -1 19 -3 4 -6 -2 -5 -13z"/>
<path d="M270 1146 c0 -2 7 -9 15 -16 9 -7 15 -8 15 -2 0 5 -7 12 -15 16 -8 3
-15 4 -15 2z"/>
<path d="M2796 1128 c3 -5 10 -6 15 -3 13 9 11 12 -6 12 -8 0 -12 -4 -9 -9z"/>
<path d="M2850 1129 c0 -5 5 -7 10 -4 6 3 10 8 10 11 0 2 -4 4 -10 4 -5 0 -10
-5 -10 -11z"/>
<path d="M2800 1090 c-9 -6 -10 -10 -3 -10 6 0 15 5 18 10 8 12 4 12 -15 0z"/>
<path d="M2746 1053 c-6 -14 -5 -15 5 -6 7 7 10 15 7 18 -3 3 -9 -2 -12 -12z"/>
<path d="M2733 995 c0 -8 4 -12 9 -9 5 3 6 10 3 15 -9 13 -12 11 -12 -6z"/>
<path d="M2715 959 c-4 -6 -5 -12 -2 -15 2 -3 7 2 10 11 7 17 1 20 -8 4z"/>
<path d="M347 929 c7 -7 15 -10 18 -7 3 3 -2 9 -12 12 -14 6 -15 5 -6 -5z"/>
<path d="M410 909 c0 -5 5 -7 10 -4 6 3 10 8 10 11 0 2 -4 4 -10 4 -5 0 -10
-5 -10 -11z"/>
<path d="M550 792 c0 -5 7 -9 15 -9 8 0 12 4 9 9 -3 4 -9 8 -15 8 -5 0 -9 -4
-9 -8z"/>
<path d="M2530 749 c0 -5 5 -7 10 -4 6 3 10 8 10 11 0 2 -4 4 -10 4 -5 0 -10
-5 -10 -11z"/>
<path d="M630 730 c0 -5 5 -10 11 -10 5 0 7 5 4 10 -3 6 -8 10 -11 10 -2 0 -4
-4 -4 -10z"/>
<path d="M659 718 c-5 -18 -6 -39 -2 -34 4 3 13 0 22 -6 12 -10 12 -7 -2 8 -9
11 -14 24 -10 27 3 4 3 7 0 7 -4 0 -7 -1 -8 -2z"/>
<path d="M2473 705 c0 -8 4 -12 9 -9 5 3 6 10 3 15 -9 13 -12 11 -12 -6z"/>
<path d="M2386 673 c-6 -14 -5 -15 5 -6 7 7 10 15 7 18 -3 3 -9 -2 -12 -12z"/>
<path d="M754 636 c1 -8 5 -18 8 -22 4 -3 5 1 4 10 -1 8 -5 18 -8 22 -4 3 -5
-1 -4 -10z"/>
<path d="M2351 623 c7 -12 15 -20 18 -17 3 2 -3 12 -13 22 -17 16 -18 16 -5
-5z"/>
<path d="M2306 613 c-6 -14 -5 -15 5 -6 7 7 10 15 7 18 -3 3 -9 -2 -12 -12z"/>
<path d="M874 566 c1 -8 5 -18 8 -22 4 -3 5 1 4 10 -1 8 -5 18 -8 22 -4 3 -5
-1 -4 -10z"/>
<path d="M2261 566 c-9 -11 -9 -16 1 -22 7 -4 10 -4 6 1 -4 4 -3 14 3 22 6 7
9 13 6 13 -2 0 -10 -6 -16 -14z"/>
<path d="M2148 543 c7 -3 16 -2 19 1 4 3 -2 6 -13 5 -11 0 -14 -3 -6 -6z"/>
<path d="M2193 535 c0 -8 4 -12 9 -9 5 3 6 10 3 15 -9 13 -12 11 -12 -6z"/>
<path d="M1059 508 c-5 -18 -6 -38 -1 -34 7 8 12 36 6 36 -2 0 -4 -1 -5 -2z"/>
<path d="M2013 495 c0 -8 3 -13 5 -10 3 3 12 -1 21 -7 10 -8 9 -4 -3 10 -23
26 -23 26 -23 7z"/>
<path d="M1080 489 c0 -5 5 -7 10 -4 6 3 10 8 10 11 0 2 -4 4 -10 4 -5 0 -10
-5 -10 -11z"/>
<path d="M1198 463 c7 -3 16 -2 19 1 4 3 -2 6 -13 5 -11 0 -14 -3 -6 -6z"/>
<path d="M1150 451 c0 -6 4 -12 8 -15 5 -3 9 1 9 9 0 8 -4 15 -9 15 -4 0 -8
-4 -8 -9z"/>
<path d="M1233 445 c0 -6 8 -11 18 -11 9 0 15 5 12 11 -2 7 -10 12 -17 12 -7
0 -13 -5 -13 -12z"/>
<path d="M1875 450 c3 -5 8 -10 11 -10 2 0 4 5 4 10 0 6 -5 10 -11 10 -5 0 -7
-4 -4 -10z"/>
<path d="M1313 425 c0 -8 4 -12 9 -9 5 3 6 10 3 15 -9 13 -12 11 -12 -6z"/>
<path d="M1464 422 c0 -10 6 -19 13 -19 8 0 9 6 2 19 -5 10 -11 18 -12 18 -2
0 -3 -8 -3 -18z"/>
<path d="M1388 423 c7 -3 16 -2 19 1 4 3 -2 6 -13 5 -11 0 -14 -3 -6 -6z"/>
<path d="M1428 423 c7 -3 16 -2 19 1 4 3 -2 6 -13 5 -11 0 -14 -3 -6 -6z"/>
<path d="M1650 409 c0 -5 5 -7 10 -4 6 3 10 8 10 11 0 2 -4 4 -10 4 -5 0 -10
-5 -10 -11z"/>
<path d="M1694 405 c3 -23 12 -26 13 -5 1 11 -2 20 -7 20 -4 0 -7 -7 -6 -15z"/>
<path d="M1755 410 c3 -5 8 -10 11 -10 2 0 4 5 4 10 0 6 -5 10 -11 10 -5 0 -7
-4 -4 -10z"/>
<path d="M1725 390 c-3 -6 1 -7 9 -4 18 7 21 14 7 14 -6 0 -13 -4 -16 -10z"/>
<path d="M1535 371 c-3 -5 -2 -12 3 -15 5 -3 9 1 9 9 0 17 -3 19 -12 6z"/>
</g>
</svg>
